# File created by Blade
# Date/Time:  Thu Sep 25 17:54:10 2014
# Frame Rate: 120.000 fps
#------------------------------------------------------
:FULLY-SPECIFIED
:DEGREES
2284
root 0.704384 32.514184 -6.607937 25.747170 -0.260614 -0.541311
Spine -34.316114 -29.161054 17.405968
Head -10.798572 16.733042 -1.389474
LeftShoulder -9.349295 -56.572133 66.378838
LeftArm 81.958728 27.589003 -99.239214
LeftForeArm 4.151459 -0.000000 96.862610
LeftHand -15.527387 -0.000000 -11.170776
LeftHandThumb1 -26.253704 0.000000 33.147579
RightShoulder -5.761145 10.410364 -43.245857
RightArm 64.635495 -9.446916 110.863942
RightForeArm 50.403594 -0.000000 135.226992
RightHand 19.514997 -0.000000 -43.052285
RightHandThumb1 -24.326973 -0.000000 -32.862282
LeftUpLeg -20.377644 4.893130 -1.175493
LeftLeg -0.957183 -0.000000 0.000000
LeftFoot -5.917138 -1.589063 -1.263581
LeftToeBase 3.948831 -0.000000 -0.000000
RightUpLeg -20.933296 -7.362910 3.146281
RightLeg -0.945580 -0.000000 0.000000
RightFoot -7.717620 -0.062900 12.200216
RightToeBase 15.891279 -0.000000 -0.000000
2285
root 0.698905 32.514738 -6.606386 25.683829 -0.250368 -0.528008
Spine -34.188662 -29.076816 17.270125
Head -10.844916 16.641333 -1.407513
LeftShoulder -8.218513 -54.890361 65.339724
LeftArm 84.263252 27.706504 -97.907032
LeftForeArm 4.261654 -0.000000 96.819162
LeftHand -15.859532 -0.000000 -10.917734
LeftHandThumb1 -26.253704 0.000000 33.147579
RightShoulder -5.740210 10.309959 -43.240361
RightArm 64.710026 -9.468143 110.867587
RightForeArm 50.341396 -0.000000 135.217736
RightHand 19.570994 -0.000000 -43.034860
RightHandThumb1 -24.326973 -0.000000 -32.862282
LeftUpLeg -20.316864 4.892978 -1.168105
LeftLeg -0.945570 -0.000000 0.000000
LeftFoot -5.904804 -1.576920 -1.290348
LeftToeBase 3.987711 -0.000000 -0.000000
RightUpLeg -20.865640 -7.366502 3.135825
RightLeg -0.945691 -0.000000 0.000000
RightFoot -7.715834 -0.077228 12.204610
RightToeBase 15.843879 -0.000000 -0.000000
2286
root 0.693175 32.515873 -6.606820 25.684186 -0.209779 -0.522384
Spine -34.153204 -29.024493 17.218422
Head -10.886325 16.596224 -1.421882
LeftShoulder -8.307257 -54.914730 65.354026
LeftArm 84.191512 27.738273 -97.918496
LeftForeArm 4.206104 0.000000 96.743021
LeftHand -15.908149 -0.000000 -10.850688
LeftHandThumb1 -26.253704 0.000000 33.147579
RightShoulder -5.714572 10.303603 -43.256312
RightArm 64.712471 -9.460531 110.848588
RightForeArm 50.221350 -0.000000 135.212135
RightHand 19.593207 0.000000 -43.136456
RightHandThumb1 -24.326973 -0.000000 -32.862282
LeftUpLeg -20.334957 4.882133 -1.156481
LeftLeg -0.927332 -0.000000 0.000000
LeftFoot -5.898325 -1.623980 -1.295330
LeftToeBase 3.896485 -0.000000 -0.000000
RightUpLeg -20.862961 -7.385219 3.153960
RightLeg -0.947841 -0.000000 0.000000
RightFoot -7.711523 -0.098025 12.161536
RightToeBase 15.853977 -0.000000 -0.000000
2287
root 0.687491 32.516086 -6.607087 25.683581 -0.173868 -0.517664
Spine -34.105508 -28.946371 17.165073
Head -10.960954 16.543681 -1.479269
LeftShoulder -8.294195 -54.864296 65.398150
LeftArm 84.285419 27.708382 -97.912349
LeftForeArm 4.263616 -0.000000 96.772087
LeftHand -16.052018 -0.000000 -10.823043
LeftHandThumb1 -26.253704 0.000000 33.147579
RightShoulder -5.717603 10.344091 -43.292786
RightArm 64.684056 -9.459884 110.847931
RightForeArm 50.146546 -0.000000 135.223511
RightHand 19.588990 0.000000 -43.181767
RightHandThumb1 -24.326973 -0.000000 -32.862282
LeftUpLeg -20.346573 4.861610 -1.140394
LeftLeg -0.907892 -0.000000 0.000000
LeftFoot -5.902646 -1.610086 -1.320626
LeftToeBase 3.990416 -0.000000 -0.000000
RightUpLeg -20.865667 -7.391465 3.165281
RightLeg -0.935192 -0.000000 0.000000
RightFoot -7.723180 -0.123441 12.181654
RightToeBase 15.858170 -0.000000 -0.000000
2288
root 0.682605 32.516336 -6.605760 25.657477 -0.137188 -0.508530
Spine -34.023502 -28.856835 17.065505
Head -11.020961 16.488781 -1.495057
LeftShoulder -7.359614 -53.420060 64.541542
LeftArm 86.251036 27.807352 -96.830342
LeftForeArm 4.394330 -0.000000 96.722514
LeftHand -16.328100 -0.000000 -10.804033
LeftHandThumb1 -26.253704 0.000000 33.147579
RightShoulder -5.748095 10.365281 -43.307158
RightArm 64.639864 -9.446289 110.835833
RightForeArm 50.171257 0.000000 135.217573
RightHand 19.560956 -0.000000 -43.204101
RightHandThumb1 -24.326973 -0.000000 -32.862282
LeftUpLeg -20.327538 4.837606 -1.127007
LeftLeg -0.897789 -0.000000 0.000000
LeftFoot -5.894099 -1.608172 -1.318626
LeftToeBase 3.997396 -0.000000 -0.000000
RightUpLeg -20.831315 -7.385465 3.161875
RightLeg -0.939131 -0.000000 0.000000
RightFoot -7.743741 -0.168335 12.120671
RightToeBase 15.851411 -0.000000 -0.000000
2289
root 0.677279 32.516615 -6.605068 25.648492 -0.081287 -0.499303
Spine -33.980427 -28.800719 17.014624
Head -11.072813 16.466231 -1.537017
LeftShoulder -7.389545 -53.362821 64.529803
LeftArm 86.295289 27.840955 -96.817341
LeftForeArm 4.373745 0.000000 96.678478
LeftHand -16.309062 -0.000000 -10.809383
LeftHandThumb1 -26.253704 0.000000 33.147579
RightShoulder -5.761447 10.386560 -43.325884
RightArm 64.606856 -9.455331 110.841766
RightForeArm 50.221979 -0.000000 135.210459
RightHand 19.567983 -0.000000 -43.143129
RightHandThumb1 -24.326973 -0.000000 -32.862282
LeftUpLeg -20.333886 4.816444 -1.112525
LeftLeg -0.879165 -0.000000 0.000000
LeftFoot -5.891700 -1.643567 -1.319632
LeftToeBase 3.987764 -0.000000 -0.000000
RightUpLeg -20.835680 -7.432716 3.187075
RightLeg -0.902868 -0.000000 0.000000
RightFoot -7.773404 -0.174905 12.114582
RightToeBase 15.877161 -0.000000 -0.000000
